<svg width="164" height="62" viewBox="0 0 164 62" fill="none" xmlns="http://www.w3.org/2000/svg">
<rect x="0.5" y="0.5" width="163" height="61" rx="4.5" fill="#20123A"/>
<rect x="0.5" y="0.5" width="163" height="61" rx="4.5" stroke="#20123A"/>
<g clip-path="url(#clip0_2_4)">
<g clip-path="url(#clip1_2_4)">
<g clip-path="url(#clip2_2_4)">
<path d="M39.0495 25.7472C38.4375 24.2751 37.1979 22.6858 36.2245 22.1835C37.0167 23.7365 37.4752 25.2944 37.6504 26.4571C37.6504 26.4594 37.6513 26.4651 37.6532 26.4805C36.0609 22.5118 33.3609 20.9115 31.1562 17.4271C31.0449 17.2509 30.9333 17.0742 30.8245 16.888C30.7692 16.7929 30.7175 16.6957 30.6695 16.5967C30.5779 16.4198 30.5072 16.2329 30.459 16.0397C30.4593 16.0305 30.4562 16.0216 30.4503 16.0146C30.4444 16.0076 30.4361 16.0031 30.427 16.0019C30.4183 15.9995 30.4092 15.9995 30.4006 16.0019C30.3986 16.0026 30.3956 16.0049 30.3935 16.0057C30.3904 16.007 30.3865 16.0098 30.3832 16.0116C30.3848 16.0095 30.3881 16.0047 30.3891 16.0036C26.8518 18.0753 25.6518 21.9076 25.5415 23.825C24.1289 23.9221 22.7784 24.4425 21.666 25.3184C21.5495 25.22 21.4278 25.1281 21.3012 25.043C20.9803 23.9201 20.9666 22.7316 21.2617 21.6017C19.8152 22.2603 18.6901 23.3015 17.8721 24.2208H17.8656C17.3074 23.5138 17.3467 21.1814 17.3786 20.6944C17.3719 20.6642 16.9621 20.9071 16.9085 20.9437C16.4159 21.2953 15.9554 21.6898 15.5323 22.1226C15.0509 22.6108 14.6111 23.1383 14.2174 23.6996C14.2174 23.7003 14.217 23.7011 14.2167 23.7018C14.2167 23.701 14.2171 23.7003 14.2174 23.6996C13.3119 24.9827 12.6697 26.4326 12.3279 27.9655C12.3212 27.996 12.3155 28.0277 12.3089 28.0584C12.2824 28.1824 12.187 28.8026 12.1703 28.9373C12.1691 28.9477 12.1685 28.9577 12.1672 28.968C12.0439 29.6092 11.9675 30.2585 11.9387 30.9108C11.9387 30.9348 11.9373 30.9586 11.9373 30.9827C11.9375 38.7589 18.2422 45.0625 26.019 45.0625C32.9837 45.0625 38.7666 40.0066 39.8988 33.3654C39.9226 33.1852 39.9417 33.004 39.9628 32.8222C40.2427 30.4076 39.9317 27.8696 39.0495 25.7472ZM22.8193 36.7684C22.8851 36.7998 22.947 36.8342 23.0146 36.8644C23.0175 36.8663 23.0213 36.8685 23.0242 36.8703C22.9554 36.8374 22.8871 36.8034 22.8193 36.7684ZM37.6543 26.484L37.6524 26.4704C37.6531 26.4753 37.654 26.4805 37.6548 26.4855L37.6543 26.484Z" fill="url(#paint0_linear_2_4)"/>
<path d="M39.0495 25.7472C38.4375 24.2751 37.1979 22.6858 36.2245 22.1835C37.0167 23.7365 37.4752 25.2944 37.6504 26.4571C37.6504 26.4537 37.6511 26.4599 37.6525 26.4704C37.6532 26.4753 37.6541 26.4805 37.6549 26.4855C38.9835 30.0873 38.2597 33.7499 37.2167 35.988C35.603 39.4509 31.6962 42.9999 25.5813 42.8268C18.9746 42.6397 13.1543 37.7376 12.0677 31.317C11.8698 30.3045 12.0677 29.7904 12.1674 28.9683C12.046 29.6021 11.9998 29.7851 11.9388 30.9111C11.9388 30.9351 11.9374 30.9589 11.9374 30.983C11.9375 38.7589 18.2422 45.0625 26.019 45.0625C32.9837 45.0625 38.7666 40.0066 39.8988 33.3654C39.9226 33.1852 39.9417 33.004 39.9628 32.8222C40.2427 30.4076 39.9317 27.8696 39.0495 25.7472Z" fill="url(#paint1_radial_2_4)"/>
<path d="M39.0495 25.7472C38.4375 24.2751 37.1979 22.6858 36.2245 22.1835C37.0167 23.7365 37.4752 25.2944 37.6504 26.4571C37.6504 26.4537 37.6511 26.4599 37.6525 26.4704C37.6532 26.4753 37.6541 26.4805 37.6549 26.4855C38.9835 30.0873 38.2597 33.7499 37.2167 35.988C35.603 39.4509 31.6962 42.9999 25.5813 42.8268C18.9746 42.6397 13.1543 37.7376 12.0677 31.317C11.8698 30.3045 12.0677 29.7904 12.1674 28.9683C12.046 29.6021 11.9998 29.7851 11.9388 30.9111C11.9388 30.9351 11.9374 30.9589 11.9374 30.983C11.9375 38.7589 18.2422 45.0625 26.019 45.0625C32.9837 45.0625 38.7666 40.0066 39.8988 33.3654C39.9226 33.1852 39.9417 33.004 39.9628 32.8222C40.2427 30.4076 39.9317 27.8696 39.0495 25.7472Z" fill="url(#paint2_radial_2_4)"/>
<path d="M32.2064 27.4023C32.2371 27.4239 32.265 27.4454 32.2939 27.4668C31.9405 26.8396 31.5004 26.2653 30.9866 25.761C26.6094 21.3843 29.8388 16.2711 30.3835 16.0114C30.385 16.0093 30.3883 16.0045 30.3893 16.0034C26.852 18.075 25.652 21.9074 25.5417 23.8247C25.7058 23.8134 25.8694 23.7996 26.0364 23.7996C28.6761 23.7996 30.9752 25.251 32.2064 27.4023Z" fill="url(#paint3_radial_2_4)"/>
<path d="M26.0452 28.2762C26.0222 28.6265 24.7847 29.8344 24.3519 29.8344C20.3476 29.8344 19.6977 32.2564 19.6977 32.2564C19.875 34.296 21.295 35.9756 23.0147 36.8644C23.0932 36.9049 23.1726 36.9415 23.252 36.9777C23.3882 37.038 23.5262 37.0944 23.6656 37.1468C24.2553 37.3556 24.8729 37.4747 25.4979 37.5002C32.5163 37.8294 33.876 29.1099 28.8111 26.5779C30.1082 26.3523 31.4546 26.8739 32.2064 27.4021C30.9753 25.2509 28.6762 23.7995 26.0365 23.7995C25.8695 23.7995 25.706 23.8133 25.5419 23.8247C24.1293 23.9218 22.7788 24.4422 21.6664 25.3181C21.881 25.4997 22.1234 25.7426 22.634 26.2455C23.5892 27.187 26.04 28.1618 26.0452 28.2762Z" fill="url(#paint4_radial_2_4)"/>
<path d="M26.0452 28.2762C26.0222 28.6265 24.7847 29.8344 24.3519 29.8344C20.3476 29.8344 19.6977 32.2564 19.6977 32.2564C19.875 34.296 21.295 35.9756 23.0147 36.8644C23.0932 36.9049 23.1726 36.9415 23.252 36.9777C23.3882 37.038 23.5262 37.0944 23.6656 37.1468C24.2553 37.3556 24.8729 37.4747 25.4979 37.5002C32.5163 37.8294 33.876 29.1099 28.8111 26.5779C30.1082 26.3523 31.4546 26.8739 32.2064 27.4021C30.9753 25.2509 28.6762 23.7995 26.0365 23.7995C25.8695 23.7995 25.706 23.8133 25.5419 23.8247C24.1293 23.9218 22.7788 24.4422 21.6664 25.3181C21.881 25.4997 22.1234 25.7426 22.634 26.2455C23.5892 27.187 26.04 28.1618 26.0452 28.2762Z" fill="url(#paint5_radial_2_4)"/>
<path d="M21.0095 24.8498C21.1076 24.913 21.2049 24.9775 21.3014 25.0431C20.9804 23.9202 20.9668 22.7318 21.2619 21.6018C19.8153 22.2604 18.6902 23.3016 17.8722 24.2209C17.9399 24.219 19.9824 24.1823 21.0095 24.8498Z" fill="url(#paint6_radial_2_4)"/>
<path d="M12.0677 31.317C13.1542 37.7376 18.9746 42.6397 25.5813 42.8268C31.6962 42.9999 35.603 39.4506 37.2167 35.988C38.2596 33.7497 38.9835 30.0876 37.6549 26.4855L37.6544 26.484L37.6525 26.4703C37.6511 26.4599 37.6502 26.4537 37.6504 26.4571C37.6504 26.4594 37.6513 26.4651 37.6532 26.4805C38.1526 29.7419 36.4936 32.9015 33.9002 35.0378L33.8924 35.0561C28.839 39.1708 24.0033 37.5386 23.0242 36.8706C22.9554 36.8374 22.887 36.8034 22.8191 36.7684C19.8729 35.3605 18.6558 32.6764 18.9168 30.3744C16.4291 30.3744 15.5808 28.2763 15.5808 28.2763C15.5808 28.2763 17.8143 26.6837 20.758 28.0688C23.4844 29.3516 26.0448 28.2764 26.0451 28.2763C26.0399 28.1619 23.589 27.187 22.6336 26.2456C22.1231 25.7427 21.8807 25.5001 21.666 25.3182C21.5495 25.2198 21.4278 25.1279 21.3012 25.0428C21.2046 24.9773 21.1073 24.9129 21.0094 24.8495C19.9824 24.182 17.9398 24.2187 17.8721 24.2205H17.8656C17.3074 23.5134 17.3467 21.181 17.3786 20.6941C17.3719 20.6639 16.9621 20.9068 16.9085 20.9434C16.4159 21.295 15.9554 21.6895 15.5323 22.1223C15.0509 22.6106 14.6111 23.1382 14.2174 23.6996C14.2174 23.7003 14.217 23.7011 14.2167 23.7018C14.2167 23.701 14.2171 23.7003 14.2174 23.6996C13.3119 24.9827 12.6697 26.4326 12.3279 27.9655C12.3212 27.996 11.8211 30.1828 12.0677 31.317Z" fill="url(#paint7_radial_2_4)"/>
<path d="M30.9866 25.761C31.5004 26.2653 31.9405 26.8395 32.2939 27.4667C32.3714 27.525 32.4438 27.583 32.5053 27.6397C35.6976 30.5811 34.025 34.7413 33.9002 35.0378C36.4936 32.9014 38.1526 29.7419 37.6532 26.4805C36.0609 22.5118 33.361 20.9115 31.1563 17.4271C31.0449 17.2509 30.9333 17.0742 30.8246 16.888C30.7692 16.7929 30.7175 16.6957 30.6695 16.5967C30.5779 16.4198 30.5073 16.2329 30.459 16.0397C30.4593 16.0305 30.4562 16.0216 30.4503 16.0146C30.4444 16.0076 30.4361 16.0031 30.427 16.0019C30.4184 15.9995 30.4092 15.9995 30.4006 16.0019C30.3986 16.0026 30.3957 16.0049 30.3935 16.0057C30.3904 16.007 30.3865 16.0098 30.3832 16.0116C29.8388 16.2711 26.6094 21.3843 30.9866 25.761Z" fill="url(#paint8_radial_2_4)"/>
<path d="M32.5053 27.6397C32.4438 27.583 32.3714 27.525 32.2938 27.4667C32.2652 27.4452 32.2371 27.4237 32.2064 27.4023C31.4545 26.8741 30.1081 26.3525 28.811 26.578C33.8759 29.1101 32.5162 37.8296 25.4979 37.5004C24.8729 37.4749 24.2552 37.3558 23.6656 37.147C23.5261 37.0946 23.3882 37.0382 23.252 36.9779C23.1725 36.9417 23.0931 36.9051 23.0146 36.8645C23.0175 36.8665 23.0213 36.8686 23.0242 36.8704C24.0033 37.5384 28.839 39.1706 33.8924 35.056L33.9002 35.0376C34.0249 34.7415 35.6976 30.5812 32.5053 27.6397Z" fill="url(#paint9_radial_2_4)"/>
<path d="M19.6976 32.2564C19.6976 32.2564 20.3476 29.8345 24.3518 29.8345C24.7847 29.8345 26.0223 28.6265 26.0452 28.2763C26.0681 27.926 23.4846 29.3516 20.7581 28.0688C17.8144 26.6838 15.5809 28.2763 15.5809 28.2763C15.5809 28.2763 16.4291 30.3745 18.9168 30.3745C18.6559 32.6764 19.873 35.3608 22.8192 36.7684C22.8851 36.7999 22.9469 36.8343 23.0145 36.8645C21.2949 35.9757 19.875 34.2961 19.6976 32.2564Z" fill="url(#paint10_radial_2_4)"/>
<path d="M39.0495 25.7472C38.4375 24.2751 37.1979 22.6858 36.2246 22.1835C37.0167 23.7365 37.4752 25.2944 37.6504 26.4571C37.6504 26.4594 37.6513 26.4651 37.6532 26.4805C36.0609 22.5118 33.361 20.9115 31.1562 17.4271C31.0449 17.2509 30.9333 17.0742 30.8246 16.888C30.7692 16.7929 30.7175 16.6957 30.6695 16.5967C30.5779 16.4198 30.5073 16.2329 30.459 16.0397C30.4593 16.0305 30.4562 16.0216 30.4503 16.0146C30.4444 16.0076 30.4361 16.0031 30.427 16.0019C30.4184 15.9995 30.4092 15.9995 30.4006 16.0019C30.3986 16.0026 30.3956 16.0049 30.3935 16.0057C30.3904 16.007 30.3865 16.0098 30.3832 16.0116C30.3848 16.0095 30.3881 16.0047 30.3891 16.0036C26.8518 18.0753 25.6518 21.9076 25.5415 23.825C25.7056 23.8136 25.8692 23.7998 26.0362 23.7998C28.676 23.7998 30.9751 25.2512 32.2061 27.4024C31.4542 26.8742 30.1078 26.3526 28.8107 26.5782C33.8756 29.1102 32.5159 37.8297 25.4976 37.5005C24.8726 37.475 24.2549 37.3559 23.6653 37.1471C23.5258 37.0947 23.3879 37.0383 23.2517 36.978C23.1722 36.9418 23.0928 36.9052 23.0144 36.8646C23.0172 36.8666 23.021 36.8687 23.0239 36.8705C22.9551 36.8374 22.8867 36.8033 22.8188 36.7684C22.8847 36.7998 22.9466 36.8342 23.0142 36.8644C21.2945 35.9757 19.8745 34.2961 19.6971 32.2564C19.6971 32.2564 20.3471 29.8345 24.3513 29.8345C24.7842 29.8345 26.0218 28.6265 26.0447 28.2763C26.0395 28.1619 23.5886 27.187 22.6332 26.2456C22.1227 25.7427 21.8803 25.5002 21.6656 25.3182C21.5491 25.2198 21.4274 25.1279 21.3008 25.0428C20.9799 23.9199 20.9662 22.7315 21.2613 21.6015C19.8148 22.2602 18.6897 23.3013 17.8717 24.2206H17.8652C17.307 23.5136 17.3463 21.1812 17.3782 20.6942C17.3715 20.6641 16.9617 20.9069 16.9081 20.9436C16.4155 21.2952 15.955 21.6897 15.5319 22.1225C15.0507 22.6107 14.611 23.1382 14.2174 23.6996C14.2174 23.7003 14.217 23.7011 14.2167 23.7018C14.2167 23.701 14.2171 23.7003 14.2174 23.6996C13.3119 24.9827 12.6697 26.4326 12.3279 27.9655C12.3212 27.996 12.3155 28.0277 12.3089 28.0584C12.2824 28.1824 12.1633 28.8115 12.1466 28.9465C12.1453 28.9568 12.1479 28.9362 12.1466 28.9465C12.0379 29.5966 11.9686 30.2526 11.939 30.9111C11.939 30.9351 11.9375 30.9589 11.9375 30.983C11.9375 38.7589 18.2422 45.0625 26.019 45.0625C32.9837 45.0625 38.7666 40.0066 39.8988 33.3654C39.9226 33.1852 39.9417 33.004 39.9628 32.8222C40.2427 30.4076 39.9317 27.8696 39.0495 25.7472ZM37.6525 26.4704C37.6532 26.4753 37.6541 26.4805 37.6549 26.4855L37.6544 26.484L37.6525 26.4704Z" fill="url(#paint11_linear_2_4)"/>
</g>
</g>
</g>
<path d="M52.7979 36H51.3899L55.4624 24.9091H56.8487L60.9212 36H59.5131L56.1989 26.6637H56.1122L52.7979 36ZM53.3178 31.6676H58.9933V32.859H53.3178V31.6676ZM65.6164 36.1733C64.9232 36.1733 64.3113 35.9982 63.7805 35.648C63.2498 35.2942 62.8346 34.796 62.535 34.1533C62.2353 33.5071 62.0855 32.7435 62.0855 31.8626C62.0855 30.9889 62.2353 30.2307 62.535 29.5881C62.8346 28.9454 63.2516 28.449 63.786 28.0988C64.3203 27.7486 64.9376 27.5735 65.6381 27.5735C66.1796 27.5735 66.6074 27.6638 66.9215 27.8443C67.2392 28.0212 67.4811 28.2234 67.6472 28.4508C67.8169 28.6747 67.9487 28.8588 68.0425 29.0032H68.1508V24.9091H69.4289V36H68.1942V34.7219H68.0425C67.9487 34.8736 67.8151 35.0649 67.6418 35.296C67.4685 35.5234 67.2212 35.7274 66.8999 35.9079C66.5785 36.0848 66.1507 36.1733 65.6164 36.1733ZM65.7897 35.0252C66.3023 35.0252 66.7356 34.8916 67.0894 34.6245C67.4432 34.3537 67.7122 33.98 67.8963 33.5035C68.0804 33.0233 68.1725 32.4691 68.1725 31.8409C68.1725 31.2199 68.0822 30.6766 67.9017 30.2108C67.7212 29.7415 67.454 29.3769 67.1002 29.1169C66.7464 28.8534 66.3096 28.7216 65.7897 28.7216C65.2481 28.7216 64.7968 28.8606 64.4358 29.1386C64.0784 29.413 63.8094 29.7866 63.6289 30.2596C63.452 30.7289 63.3635 31.256 63.3635 31.8409C63.3635 32.433 63.4538 32.9709 63.6343 33.4547C63.8184 33.9349 64.0892 34.3176 64.4466 34.6028C64.8077 34.8844 65.2554 35.0252 65.7897 35.0252ZM75.0881 36.1733C74.3949 36.1733 73.7829 35.9982 73.2522 35.648C72.7215 35.2942 72.3063 34.796 72.0067 34.1533C71.707 33.5071 71.5572 32.7435 71.5572 31.8626C71.5572 30.9889 71.707 30.2307 72.0067 29.5881C72.3063 28.9454 72.7233 28.449 73.2576 28.0988C73.792 27.7486 74.4093 27.5735 75.1097 27.5735C75.6513 27.5735 76.0791 27.6638 76.3932 27.8443C76.7109 28.0212 76.9528 28.2234 77.1189 28.4508C77.2886 28.6747 77.4203 28.8588 77.5142 29.0032H77.6225V24.9091H78.9006V36H77.6658V34.7219H77.5142C77.4203 34.8736 77.2868 35.0649 77.1135 35.296C76.9402 35.5234 76.6929 35.7274 76.3715 35.9079C76.0502 36.0848 75.6224 36.1733 75.0881 36.1733ZM75.2614 35.0252C75.774 35.0252 76.2073 34.8916 76.5611 34.6245C76.9149 34.3537 77.1839 33.98 77.368 33.5035C77.5521 33.0233 77.6442 32.4691 77.6442 31.8409C77.6442 31.2199 77.5539 30.6766 77.3734 30.2108C77.1929 29.7415 76.9257 29.3769 76.5719 29.1169C76.2181 28.8534 75.7813 28.7216 75.2614 28.7216C74.7198 28.7216 74.2685 28.8606 73.9075 29.1386C73.5501 29.413 73.2811 29.7866 73.1006 30.2596C72.9237 30.7289 72.8352 31.256 72.8352 31.8409C72.8352 32.433 72.9255 32.9709 73.106 33.4547C73.2901 33.9349 73.5609 34.3176 73.9183 34.6028C74.2794 34.8844 74.727 35.0252 75.2614 35.0252ZM89.3254 27.6818V28.7649H85.0146V27.6818H89.3254ZM86.271 25.6889H87.5491V33.6172C87.5491 33.9782 87.6014 34.249 87.7061 34.4295C87.8145 34.6064 87.9516 34.7256 88.1177 34.7869C88.2874 34.8447 88.4661 34.8736 88.6539 34.8736C88.7947 34.8736 88.9102 34.8664 89.0004 34.8519C89.0907 34.8339 89.1629 34.8194 89.2171 34.8086L89.477 35.9567C89.3904 35.9892 89.2694 36.0217 89.1142 36.0542C88.9589 36.0903 88.7622 36.1083 88.5239 36.1083C88.1628 36.1083 87.809 36.0307 87.4624 35.8754C87.1195 35.7202 86.8343 35.4837 86.6068 35.166C86.383 34.8483 86.271 34.4476 86.271 33.9638V25.6889ZM94.5378 36.1733C93.7868 36.1733 93.1279 35.9946 92.5611 35.6372C91.9979 35.2797 91.5575 34.7797 91.2397 34.1371C90.9256 33.4944 90.7686 32.7435 90.7686 31.8842C90.7686 31.0178 90.9256 30.2614 91.2397 29.6151C91.5575 28.9689 91.9979 28.4671 92.5611 28.1096C93.1279 27.7522 93.7868 27.5735 94.5378 27.5735C95.2887 27.5735 95.9458 27.7522 96.509 28.1096C97.0758 28.4671 97.5163 28.9689 97.8304 29.6151C98.1481 30.2614 98.307 31.0178 98.307 31.8842C98.307 32.7435 98.1481 33.4944 97.8304 34.1371C97.5163 34.7797 97.0758 35.2797 96.509 35.6372C95.9458 35.9946 95.2887 36.1733 94.5378 36.1733ZM94.5378 35.0252C95.1082 35.0252 95.5775 34.879 95.9458 34.5866C96.3141 34.2941 96.5866 33.9096 96.7635 33.4331C96.9404 32.9565 97.0289 32.4402 97.0289 31.8842C97.0289 31.3282 96.9404 30.8102 96.7635 30.33C96.5866 29.8498 96.3141 29.4617 95.9458 29.1657C95.5775 28.8696 95.1082 28.7216 94.5378 28.7216C93.9673 28.7216 93.498 28.8696 93.1297 29.1657C92.7615 29.4617 92.4889 29.8498 92.312 30.33C92.1351 30.8102 92.0467 31.3282 92.0467 31.8842C92.0467 32.4402 92.1351 32.9565 92.312 33.4331C92.4889 33.9096 92.7615 34.2941 93.1297 34.5866C93.498 34.879 93.9673 35.0252 94.5378 35.0252ZM104.72 36V24.9091H111.37V26.1005H106.063V29.848H110.872V31.0394H106.063V36H104.72ZM113.497 36V27.6818H114.775V36H113.497ZM114.147 26.2955C113.898 26.2955 113.683 26.2106 113.503 26.0409C113.326 25.8712 113.237 25.6673 113.237 25.429C113.237 25.1907 113.326 24.9867 113.503 24.817C113.683 24.6473 113.898 24.5625 114.147 24.5625C114.396 24.5625 114.609 24.6473 114.786 24.817C114.967 24.9867 115.057 25.1907 115.057 25.429C115.057 25.6673 114.967 25.8712 114.786 26.0409C114.609 26.2106 114.396 26.2955 114.147 26.2955ZM117.116 36V27.6818H118.351V28.9382H118.438C118.589 28.5266 118.864 28.1927 119.261 27.9363C119.658 27.68 120.106 27.5518 120.604 27.5518C120.698 27.5518 120.815 27.5537 120.956 27.5573C121.097 27.5609 121.203 27.5663 121.275 27.5735V28.8732C121.232 28.8624 121.133 28.8461 120.978 28.8245C120.826 28.7992 120.665 28.7866 120.496 28.7866C120.091 28.7866 119.73 28.8714 119.412 29.0411C119.098 29.2072 118.849 29.4382 118.665 29.7343C118.485 30.0267 118.394 30.3607 118.394 30.7362V36H117.116ZM126.025 36.1733C125.223 36.1733 124.532 35.9964 123.951 35.6426C123.373 35.2852 122.927 34.7869 122.613 34.1479C122.303 33.5053 122.147 32.7579 122.147 31.9059C122.147 31.0539 122.303 30.3029 122.613 29.6531C122.927 28.9996 123.364 28.4905 123.924 28.1259C124.487 27.7576 125.144 27.5735 125.895 27.5735C126.328 27.5735 126.756 27.6457 127.178 27.7901C127.601 27.9345 127.985 28.1692 128.332 28.4941C128.678 28.8155 128.955 29.2415 129.16 29.7722C129.366 30.3029 129.469 30.9564 129.469 31.7326V32.2741H123.057V31.1694H128.169C128.169 30.7 128.075 30.2812 127.888 29.913C127.704 29.5447 127.44 29.2541 127.097 29.0411C126.758 28.8281 126.357 28.7216 125.895 28.7216C125.386 28.7216 124.945 28.848 124.573 29.1007C124.205 29.3498 123.922 29.6747 123.723 30.0755C123.525 30.4762 123.425 30.9058 123.425 31.3643V32.1009C123.425 32.729 123.534 33.2616 123.75 33.6984C123.97 34.1317 124.276 34.462 124.665 34.6895C125.055 34.9133 125.508 35.0252 126.025 35.0252C126.361 35.0252 126.664 34.9783 126.935 34.8844C127.209 34.7869 127.445 34.6425 127.644 34.4512C127.843 34.2562 127.996 34.0143 128.104 33.7255L129.339 34.0721C129.209 34.4909 128.991 34.8591 128.684 35.1768C128.377 35.4909 127.998 35.7364 127.546 35.9134C127.095 36.0866 126.588 36.1733 126.025 36.1733ZM135.117 27.6818V28.7649H130.633V27.6818H135.117ZM131.976 36V26.5337C131.976 26.0572 132.088 25.66 132.312 25.3423C132.536 25.0246 132.827 24.7863 133.184 24.6275C133.541 24.4686 133.919 24.3892 134.316 24.3892C134.63 24.3892 134.886 24.4145 135.085 24.465C135.283 24.5156 135.431 24.5625 135.529 24.6058L135.161 25.7106C135.096 25.6889 135.005 25.6618 134.89 25.6293C134.778 25.5969 134.63 25.5806 134.446 25.5806C134.023 25.5806 133.718 25.6871 133.531 25.9001C133.346 26.1131 133.254 26.4254 133.254 26.837V36H131.976ZM139.945 36.1733C139.194 36.1733 138.535 35.9946 137.969 35.6372C137.405 35.2797 136.965 34.7797 136.647 34.1371C136.333 33.4944 136.176 32.7435 136.176 31.8842C136.176 31.0178 136.333 30.2614 136.647 29.6151C136.965 28.9689 137.405 28.4671 137.969 28.1096C138.535 27.7522 139.194 27.5735 139.945 27.5735C140.696 27.5735 141.353 27.7522 141.916 28.1096C142.483 28.4671 142.924 28.9689 143.238 29.6151C143.556 30.2614 143.714 31.0178 143.714 31.8842C143.714 32.7435 143.556 33.4944 143.238 34.1371C142.924 34.7797 142.483 35.2797 141.916 35.6372C141.353 35.9946 140.696 36.1733 139.945 36.1733ZM139.945 35.0252C140.516 35.0252 140.985 34.879 141.353 34.5866C141.722 34.2941 141.994 33.9096 142.171 33.4331C142.348 32.9565 142.436 32.4402 142.436 31.8842C142.436 31.3282 142.348 30.8102 142.171 30.33C141.994 29.8498 141.722 29.4617 141.353 29.1657C140.985 28.8696 140.516 28.7216 139.945 28.7216C139.375 28.7216 138.905 28.8696 138.537 29.1657C138.169 29.4617 137.896 29.8498 137.719 30.33C137.543 30.8102 137.454 31.3282 137.454 31.8842C137.454 32.4402 137.543 32.9565 137.719 33.4331C137.896 33.9096 138.169 34.2941 138.537 34.5866C138.905 34.879 139.375 35.0252 139.945 35.0252ZM146.276 27.6818L148.269 31.0827L150.262 27.6818H151.735L149.049 31.8409L151.735 36H150.262L148.269 32.7724L146.276 36H144.803L147.446 31.8409L144.803 27.6818H146.276Z" fill="white"/>
<defs>
<linearGradient id="paint0_linear_2_4" x1="2465.86" y1="466.468" x2="204.806" y2="2647.58" gradientUnits="userSpaceOnUse">
<stop offset="0.05" stop-color="#FFF44F"/>
<stop offset="0.37" stop-color="#FF980E"/>
<stop offset="0.53" stop-color="#FF3647"/>
<stop offset="0.7" stop-color="#E31587"/>
</linearGradient>
<radialGradient id="paint1_radial_2_4" cx="0" cy="0" r="1" gradientUnits="userSpaceOnUse" gradientTransform="translate(1978.27 -272.948) scale(2880.01 2928.51)">
<stop offset="0.13" stop-color="#FFBD4F"/>
<stop offset="0.28" stop-color="#FF980E"/>
<stop offset="0.47" stop-color="#FF3750"/>
<stop offset="0.78" stop-color="#EB0878"/>
<stop offset="0.86" stop-color="#E50080"/>
</radialGradient>
<radialGradient id="paint2_radial_2_4" cx="0" cy="0" r="1" gradientUnits="userSpaceOnUse" gradientTransform="translate(1141.84 937.343) scale(2952.01 2928.51)">
<stop offset="0.3" stop-color="#960E18"/>
<stop offset="0.35" stop-color="#B11927" stop-opacity="0.74"/>
<stop offset="0.43" stop-color="#DB293D" stop-opacity="0.34"/>
<stop offset="0.5" stop-color="#F5334B" stop-opacity="0.09"/>
<stop offset="0.53" stop-color="#FF3750" stop-opacity="0"/>
</radialGradient>
<radialGradient id="paint3_radial_2_4" cx="0" cy="0" r="1" gradientUnits="userSpaceOnUse" gradientTransform="translate(349.643 -121.557) scale(945.295 1604.88)">
<stop offset="0.13" stop-color="#FFF44F"/>
<stop offset="0.53" stop-color="#FF980E"/>
</radialGradient>
<radialGradient id="paint4_radial_2_4" cx="0" cy="0" r="1" gradientUnits="userSpaceOnUse" gradientTransform="translate(304.397 1533.38) scale(1250.88 1370.98)">
<stop offset="0.35" stop-color="#3A8EE6"/>
<stop offset="0.67" stop-color="#9059FF"/>
<stop offset="1" stop-color="#C139E6"/>
</radialGradient>
<radialGradient id="paint5_radial_2_4" cx="0" cy="0" r="1" gradientUnits="userSpaceOnUse" gradientTransform="translate(604.238 476.222) scale(664.216 808.876)">
<stop offset="0.21" stop-color="#9059FF" stop-opacity="0"/>
<stop offset="0.97" stop-color="#6E008B" stop-opacity="0.6"/>
</radialGradient>
<radialGradient id="paint6_radial_2_4" cx="0" cy="0" r="1" gradientUnits="userSpaceOnUse" gradientTransform="translate(737.992 -322.531) scale(994.451 997.985)">
<stop offset="0.1" stop-color="#FFE226"/>
<stop offset="0.79" stop-color="#FF7139"/>
</radialGradient>
<radialGradient id="paint7_radial_2_4" cx="0" cy="0" r="1" gradientUnits="userSpaceOnUse" gradientTransform="translate(2227.6 -887.106) scale(4747.72 3985.45)">
<stop offset="0.11" stop-color="#FFF44F"/>
<stop offset="0.46" stop-color="#FF980E"/>
<stop offset="0.72" stop-color="#FF3647"/>
<stop offset="0.9" stop-color="#E31587"/>
</radialGradient>
<radialGradient id="paint8_radial_2_4" cx="0" cy="0" r="1" gradientUnits="userSpaceOnUse" gradientTransform="translate(380.184 74.7259) rotate(77.3946) scale(1506.29 6515.98)">
<stop stop-color="#FFF44F"/>
<stop offset="0.3" stop-color="#FF980E"/>
<stop offset="0.57" stop-color="#FF3647"/>
<stop offset="0.74" stop-color="#E31587"/>
</radialGradient>
<radialGradient id="paint9_radial_2_4" cx="0" cy="0" r="1" gradientUnits="userSpaceOnUse" gradientTransform="translate(239.119 -450.888) scale(2725.89 2678)">
<stop offset="0.14" stop-color="#FFF44F"/>
<stop offset="0.48" stop-color="#FF980E"/>
<stop offset="0.66" stop-color="#FF3647"/>
<stop offset="0.9" stop-color="#E31587"/>
</radialGradient>
<radialGradient id="paint10_radial_2_4" cx="0" cy="0" r="1" gradientUnits="userSpaceOnUse" gradientTransform="translate(1682.57 -391.153) scale(3276.42 2931.15)">
<stop offset="0.09" stop-color="#FFF44F"/>
<stop offset="0.63" stop-color="#FF980E"/>
</radialGradient>
<linearGradient id="paint11_linear_2_4" x1="2261.94" y1="422.874" x2="453.877" y2="2398.38" gradientUnits="userSpaceOnUse">
<stop offset="0.17" stop-color="#FFF44F" stop-opacity="0.8"/>
<stop offset="0.6" stop-color="#FFF44F" stop-opacity="0"/>
</linearGradient>
<clipPath id="clip0_2_4">
<rect width="30" height="30" fill="white" transform="translate(11 16)"/>
</clipPath>
<clipPath id="clip1_2_4">
<rect width="30" height="30" fill="white" transform="translate(11 16)"/>
</clipPath>
<clipPath id="clip2_2_4">
<rect width="30" height="30" fill="white" transform="translate(11 16)"/>
</clipPath>
</defs>
</svg>
