<svg width="171" height="62" viewBox="0 0 171 62" fill="none" xmlns="http://www.w3.org/2000/svg">
<rect x="0.5" y="0.5" width="170" height="61" rx="4.5" stroke="white"/>
<g clip-path="url(#clip0_2_21)">
<g clip-path="url(#clip1_2_21)">
<g clip-path="url(#clip2_2_21)">
<path d="M26 38.4967C30.1421 38.4967 33.5 35.1388 33.5 30.9967C33.5 26.8546 30.1421 23.4967 26 23.4967C21.8579 23.4967 18.5 26.8546 18.5 30.9967C18.5 35.1388 21.8579 38.4967 26 38.4967Z" fill="white"/>
<path d="M26 23.5H38.9883C37.6721 21.2196 35.7788 19.3259 33.4987 18.0094C31.2185 16.6928 28.632 15.9998 25.999 16C23.3661 16.0002 20.7796 16.6935 18.4996 18.0104C16.2197 19.3273 14.3266 21.2212 13.0108 23.5018L19.5049 34.75L19.5108 34.7485C18.8501 33.6093 18.5015 32.3161 18.5 30.9992C18.4985 29.6823 18.8443 28.3883 19.5023 27.2476C20.1604 26.1069 21.1075 25.1598 22.2483 24.5019C23.3891 23.8439 24.6831 23.4984 26 23.5Z" fill="url(#paint0_linear_2_21)"/>
<path d="M26 36.9375C29.2792 36.9375 31.9375 34.2792 31.9375 31C31.9375 27.7208 29.2792 25.0625 26 25.0625C22.7208 25.0625 20.0625 27.7208 20.0625 31C20.0625 34.2792 22.7208 36.9375 26 36.9375Z" fill="#1A73E8"/>
<path d="M32.4946 34.7518L26.0004 46C28.6334 46.0004 31.22 45.3075 33.5002 43.9911C35.7804 42.6747 37.6739 40.7812 38.9902 38.5009C40.3065 36.2206 40.9992 33.634 40.9988 31.0011C40.9983 28.3681 40.3046 25.7817 38.9875 23.5019H25.9993L25.9978 23.5077C27.3147 23.5052 28.609 23.8499 29.7502 24.5071C30.8914 25.1642 31.8392 26.1106 32.498 27.2509C33.1568 28.3911 33.5034 29.6849 33.5028 31.0018C33.5022 32.3187 33.1545 33.6122 32.4946 34.7518Z" fill="url(#paint1_linear_2_21)"/>
<path d="M19.5054 34.7519L13.0113 23.5038C11.6945 25.7838 11.0012 28.3703 11.0011 31.0032C11.001 33.6361 11.6941 36.2227 13.0107 38.5028C14.3273 40.7829 16.2211 42.6761 18.5015 43.9922C20.7819 45.3083 23.3686 46.0008 26.0016 46L32.4957 34.7518L32.4915 34.7476C31.8352 35.8893 30.8896 36.8378 29.7498 37.4976C28.6101 38.1573 27.3166 38.5049 25.9997 38.5053C24.6828 38.5058 23.3891 38.159 22.2489 37.5001C21.1087 36.8411 20.1624 35.8932 19.5054 34.7519Z" fill="url(#paint2_linear_2_21)"/>
</g>
</g>
</g>
<path d="M53.0932 36H51.6967L55.7358 25H57.1108L61.1498 36H59.7534L56.4662 26.7402H56.3803L53.0932 36ZM53.6088 31.7031H59.2377V32.8848H53.6088V31.7031ZM65.8066 36.1719C65.1191 36.1719 64.5121 35.9982 63.9858 35.6509C63.4594 35.3 63.0476 34.8058 62.7504 34.1685C62.4532 33.5275 62.3046 32.7702 62.3046 31.8965C62.3046 31.0299 62.4532 30.278 62.7504 29.6406C63.0476 29.0033 63.4612 28.5109 63.9911 28.1636C64.5211 27.8162 65.1334 27.6426 65.8281 27.6426C66.3652 27.6426 66.7895 27.7321 67.101 27.9111C67.4161 28.0866 67.656 28.2871 67.8207 28.5127C67.989 28.7347 68.1197 28.9173 68.2128 29.0605H68.3203V25H69.5878V36H68.3632V34.7324H68.2128C68.1197 34.8828 67.9872 35.0726 67.8154 35.3018C67.6435 35.5273 67.3982 35.7297 67.0795 35.9087C66.7608 36.0841 66.3365 36.1719 65.8066 36.1719ZM65.9785 35.0332C66.4869 35.0332 66.9166 34.9007 67.2675 34.6357C67.6184 34.3672 67.8852 33.9966 68.0678 33.5239C68.2504 33.0477 68.3417 32.498 68.3417 31.875C68.3417 31.2591 68.2522 30.7202 68.0732 30.2583C67.8941 29.7928 67.6292 29.4312 67.2783 29.1733C66.9273 28.9119 66.4941 28.7812 65.9785 28.7812C65.4413 28.7812 64.9938 28.9191 64.6357 29.1948C64.2812 29.467 64.0144 29.8376 63.8354 30.3066C63.6599 30.7721 63.5722 31.2949 63.5722 31.875C63.5722 32.4622 63.6617 32.9958 63.8408 33.4756C64.0234 33.9518 64.2919 34.3314 64.6464 34.6143C65.0045 34.8936 65.4485 35.0332 65.9785 35.0332ZM75.2006 36.1719C74.5131 36.1719 73.9062 35.9982 73.3798 35.6509C72.8535 35.3 72.4417 34.8058 72.1445 34.1685C71.8473 33.5275 71.6987 32.7702 71.6987 31.8965C71.6987 31.0299 71.8473 30.278 72.1445 29.6406C72.4417 29.0033 72.8552 28.5109 73.3852 28.1636C73.9151 27.8162 74.5274 27.6426 75.2221 27.6426C75.7592 27.6426 76.1835 27.7321 76.4951 27.9111C76.8102 28.0866 77.0501 28.2871 77.2148 28.5127C77.3831 28.7347 77.5138 28.9173 77.6069 29.0605H77.7143V25H78.9819V36H77.7573V34.7324H77.6069C77.5138 34.8828 77.3813 35.0726 77.2094 35.3018C77.0375 35.5273 76.7923 35.7297 76.4736 35.9087C76.1549 36.0841 75.7306 36.1719 75.2006 36.1719ZM75.3725 35.0332C75.881 35.0332 76.3106 34.9007 76.6616 34.6357C77.0125 34.3672 77.2792 33.9966 77.4619 33.5239C77.6445 33.0477 77.7358 32.498 77.7358 31.875C77.7358 31.2591 77.6463 30.7202 77.4672 30.2583C77.2882 29.7928 77.0232 29.4312 76.6723 29.1733C76.3214 28.9119 75.8881 28.7812 75.3725 28.7812C74.8354 28.7812 74.3878 28.9191 74.0297 29.1948C73.6752 29.467 73.4085 29.8376 73.2294 30.3066C73.054 30.7721 72.9662 31.2949 72.9662 31.875C72.9662 32.4622 73.0558 32.9958 73.2348 33.4756C73.4174 33.9518 73.686 34.3314 74.0405 34.6143C74.3985 34.8936 74.8425 35.0332 75.3725 35.0332ZM89.3212 27.75V28.8242H85.0458V27.75H89.3212ZM86.2919 25.7734H87.5595V33.6367C87.5595 33.9948 87.6114 34.2633 87.7153 34.4424C87.8227 34.6178 87.9588 34.736 88.1235 34.7969C88.2918 34.8542 88.469 34.8828 88.6552 34.8828C88.7949 34.8828 88.9094 34.8757 88.999 34.8613C89.0885 34.8434 89.1601 34.8291 89.2138 34.8184L89.4716 35.957C89.3857 35.9893 89.2657 36.0215 89.1118 36.0537C88.9578 36.0895 88.7626 36.1074 88.5263 36.1074C88.1682 36.1074 87.8173 36.0304 87.4736 35.8765C87.1334 35.7225 86.8505 35.488 86.6249 35.1729C86.4029 34.8577 86.2919 34.4603 86.2919 33.9805V25.7734ZM94.4909 36.1719C93.7461 36.1719 93.0926 35.9946 92.5305 35.6401C91.9719 35.2856 91.535 34.7897 91.2199 34.1523C90.9084 33.515 90.7526 32.7702 90.7526 31.918C90.7526 31.0586 90.9084 30.3084 91.2199 29.6675C91.535 29.0265 91.9719 28.5288 92.5305 28.1743C93.0926 27.8198 93.7461 27.6426 94.4909 27.6426C95.2357 27.6426 95.8874 27.8198 96.446 28.1743C97.0082 28.5288 97.445 29.0265 97.7565 29.6675C98.0716 30.3084 98.2292 31.0586 98.2292 31.918C98.2292 32.7702 98.0716 33.515 97.7565 34.1523C97.445 34.7897 97.0082 35.2856 96.446 35.6401C95.8874 35.9946 95.2357 36.1719 94.4909 36.1719ZM94.4909 35.0332C95.0567 35.0332 95.5222 34.8882 95.8874 34.5981C96.2526 34.3081 96.523 33.9268 96.6984 33.4541C96.8739 32.9814 96.9616 32.4694 96.9616 31.918C96.9616 31.3665 96.8739 30.8527 96.6984 30.3765C96.523 29.9002 96.2526 29.5153 95.8874 29.2217C95.5222 28.9281 95.0567 28.7812 94.4909 28.7812C93.9252 28.7812 93.4597 28.9281 93.0944 29.2217C92.7292 29.5153 92.4588 29.9002 92.2834 30.3765C92.1079 30.8527 92.0202 31.3665 92.0202 31.918C92.0202 32.4694 92.1079 32.9814 92.2834 33.4541C92.4588 33.9268 92.7292 34.3081 93.0944 34.5981C93.4597 34.8882 93.9252 35.0332 94.4909 35.0332ZM113.441 28.4375H112.109C112.031 28.0544 111.893 27.7178 111.696 27.4277C111.503 27.1377 111.266 26.8942 110.987 26.6973C110.711 26.4967 110.405 26.3464 110.068 26.2461C109.732 26.1458 109.381 26.0957 109.016 26.0957C108.35 26.0957 107.746 26.264 107.206 26.6006C106.669 26.9372 106.241 27.4331 105.922 28.0884C105.607 28.7437 105.449 29.5475 105.449 30.5C105.449 31.4525 105.607 32.2563 105.922 32.9116C106.241 33.5669 106.669 34.0628 107.206 34.3994C107.746 34.736 108.35 34.9043 109.016 34.9043C109.381 34.9043 109.732 34.8542 110.068 34.7539C110.405 34.6536 110.711 34.505 110.987 34.3081C111.266 34.1076 111.503 33.8623 111.696 33.5723C111.893 33.2786 112.031 32.9421 112.109 32.5625H113.441C113.341 33.1247 113.159 33.6278 112.894 34.0718C112.629 34.5158 112.299 34.8936 111.905 35.2051C111.511 35.513 111.069 35.7476 110.579 35.9087C110.092 36.0698 109.571 36.1504 109.016 36.1504C108.078 36.1504 107.243 35.9212 106.513 35.4629C105.782 35.0046 105.208 34.3529 104.789 33.5078C104.37 32.6628 104.16 31.6602 104.16 30.5C104.16 29.3398 104.37 28.3372 104.789 27.4922C105.208 26.6471 105.782 25.9954 106.513 25.5371C107.243 25.0788 108.078 24.8496 109.016 24.8496C109.571 24.8496 110.092 24.9302 110.579 25.0913C111.069 25.2524 111.511 25.4888 111.905 25.8003C112.299 26.1082 112.629 26.4842 112.894 26.9282C113.159 27.3687 113.341 27.8717 113.441 28.4375ZM116.69 31.0371V36H115.422V25H116.69V29.0391H116.797C116.99 28.613 117.28 28.2746 117.667 28.0239C118.057 27.7697 118.577 27.6426 119.225 27.6426C119.787 27.6426 120.279 27.7554 120.702 27.981C121.124 28.203 121.452 28.5449 121.685 29.0068C121.921 29.4652 122.039 30.0488 122.039 30.7578V36H120.772V30.8437C120.772 30.1885 120.602 29.6818 120.261 29.3237C119.925 28.9621 119.458 28.7812 118.86 28.7812C118.444 28.7812 118.072 28.869 117.742 29.0444C117.417 29.2199 117.159 29.4759 116.969 29.8125C116.783 30.1491 116.69 30.5573 116.69 31.0371ZM124.358 36V27.75H125.583V28.9961H125.669C125.819 28.5879 126.091 28.2567 126.485 28.0024C126.879 27.7482 127.323 27.6211 127.817 27.6211C127.91 27.6211 128.027 27.6229 128.166 27.6265C128.306 27.63 128.412 27.6354 128.483 27.6426V28.9316C128.44 28.9209 128.342 28.9048 128.188 28.8833C128.037 28.8582 127.878 28.8457 127.71 28.8457C127.309 28.8457 126.951 28.9299 126.636 29.0981C126.324 29.2629 126.077 29.492 125.894 29.7856C125.715 30.0757 125.626 30.4069 125.626 30.7793V36H124.358ZM133.086 36.1719C132.341 36.1719 131.688 35.9946 131.126 35.6401C130.567 35.2856 130.13 34.7897 129.815 34.1523C129.504 33.515 129.348 32.7702 129.348 31.918C129.348 31.0586 129.504 30.3084 129.815 29.6675C130.13 29.0265 130.567 28.5288 131.126 28.1743C131.688 27.8198 132.341 27.6426 133.086 27.6426C133.831 27.6426 134.483 27.8198 135.041 28.1743C135.603 28.5288 136.04 29.0265 136.352 29.6675C136.667 30.3084 136.825 31.0586 136.825 31.918C136.825 32.7702 136.667 33.515 136.352 34.1523C136.04 34.7897 135.603 35.2856 135.041 35.6401C134.483 35.9946 133.831 36.1719 133.086 36.1719ZM133.086 35.0332C133.652 35.0332 134.117 34.8882 134.483 34.5981C134.848 34.3081 135.118 33.9268 135.294 33.4541C135.469 32.9814 135.557 32.4694 135.557 31.918C135.557 31.3665 135.469 30.8527 135.294 30.3765C135.118 29.9002 134.848 29.5153 134.483 29.2217C134.117 28.9281 133.652 28.7812 133.086 28.7812C132.52 28.7812 132.055 28.9281 131.69 29.2217C131.325 29.5153 131.054 29.9002 130.879 30.3765C130.703 30.8527 130.616 31.3665 130.616 31.918C130.616 32.4694 130.703 32.9814 130.879 33.4541C131.054 33.9268 131.325 34.3081 131.69 34.5981C132.055 34.8882 132.52 35.0332 133.086 35.0332ZM138.759 36V27.75H139.984V29.0391H140.091C140.263 28.5986 140.541 28.2567 140.924 28.0132C141.307 27.7661 141.767 27.6426 142.304 27.6426C142.849 27.6426 143.302 27.7661 143.663 28.0132C144.029 28.2567 144.313 28.5986 144.517 29.0391H144.603C144.814 28.613 145.131 28.2746 145.554 28.0239C145.976 27.7697 146.483 27.6426 147.074 27.6426C147.812 27.6426 148.415 27.8735 148.884 28.3354C149.353 28.7938 149.588 29.5081 149.588 30.4785V36H148.32V30.4785C148.32 29.8698 148.154 29.4347 147.82 29.1733C147.487 28.9119 147.095 28.7812 146.644 28.7812C146.064 28.7812 145.615 28.9567 145.296 29.3076C144.977 29.6549 144.818 30.0954 144.818 30.6289V36H143.529V30.3496C143.529 29.8805 143.377 29.5028 143.072 29.2163C142.768 28.9263 142.376 28.7812 141.896 28.7812C141.567 28.7812 141.259 28.869 140.972 29.0444C140.689 29.2199 140.46 29.4634 140.285 29.7749C140.113 30.0828 140.027 30.4391 140.027 30.8437V36H138.759ZM155.364 36.1719C154.569 36.1719 153.884 35.9964 153.307 35.6455C152.734 35.291 152.292 34.7969 151.98 34.1631C151.672 33.5257 151.518 32.7845 151.518 31.9395C151.518 31.0944 151.672 30.3496 151.98 29.7051C152.292 29.057 152.725 28.5521 153.28 28.1904C153.839 27.8252 154.49 27.6426 155.235 27.6426C155.665 27.6426 156.089 27.7142 156.508 27.8574C156.927 28.0007 157.309 28.2334 157.652 28.5557C157.996 28.8743 158.27 29.2969 158.474 29.8232C158.678 30.3496 158.78 30.9977 158.78 31.7676V32.3047H152.421V31.209H157.491C157.491 30.7435 157.398 30.3281 157.212 29.9629C157.029 29.5977 156.768 29.3094 156.428 29.0981C156.091 28.8869 155.694 28.7812 155.235 28.7812C154.73 28.7812 154.294 28.9066 153.925 29.1572C153.56 29.4043 153.278 29.7266 153.081 30.124C152.885 30.5215 152.786 30.9476 152.786 31.4023V32.1328C152.786 32.7559 152.893 33.284 153.108 33.7173C153.327 34.147 153.629 34.4746 154.016 34.7002C154.403 34.9222 154.852 35.0332 155.364 35.0332C155.697 35.0332 155.998 34.9867 156.267 34.8936C156.539 34.7969 156.773 34.6536 156.97 34.4639C157.167 34.2705 157.319 34.0306 157.427 33.7441L158.651 34.0879C158.522 34.5033 158.306 34.8685 158.001 35.1836C157.697 35.4951 157.321 35.7386 156.873 35.9141C156.426 36.0859 155.923 36.1719 155.364 36.1719Z" fill="white"/>
<defs>
<linearGradient id="paint0_linear_2_21" x1="13.0108" y1="25.375" x2="38.9883" y2="25.375" gradientUnits="userSpaceOnUse">
<stop stop-color="#D93025"/>
<stop offset="1" stop-color="#EA4335"/>
</linearGradient>
<linearGradient id="paint1_linear_2_21" x1="23.9512" y1="45.7994" x2="36.9399" y2="23.3023" gradientUnits="userSpaceOnUse">
<stop stop-color="#FCC934"/>
<stop offset="1" stop-color="#FBBC04"/>
</linearGradient>
<linearGradient id="paint2_linear_2_21" x1="27.6238" y1="45.0634" x2="14.6351" y2="22.5663" gradientUnits="userSpaceOnUse">
<stop stop-color="#1E8E3E"/>
<stop offset="1" stop-color="#34A853"/>
</linearGradient>
<clipPath id="clip0_2_21">
<rect width="30" height="30" fill="white" transform="translate(11 16)"/>
</clipPath>
<clipPath id="clip1_2_21">
<rect width="30" height="30" fill="white" transform="translate(11 16)"/>
</clipPath>
<clipPath id="clip2_2_21">
<rect width="30" height="30" fill="white" transform="translate(11 16)"/>
</clipPath>
</defs>
</svg>
